<svg width="18" height="18" viewBox="0 0 18 18" fill="none" xmlns="http://www.w3.org/2000/svg">
<rect width="18" height="18" rx="4" fill="#00A63E"/>
<path d="M7.86664 11.1L13.5166 5.45C13.65 5.31667 13.8055 5.25 13.9833 5.25C14.1611 5.25 14.3166 5.31667 14.45 5.45C14.5833 5.58333 14.65 5.74178 14.65 5.92533C14.65 6.10889 14.5833 6.26711 14.45 6.4L8.33331 12.5333C8.19998 12.6667 8.04442 12.7333 7.86664 12.7333C7.68887 12.7333 7.53331 12.6667 7.39998 12.5333L4.53331 9.66667C4.39998 9.53333 4.33598 9.37511 4.34131 9.192C4.34664 9.00889 4.4162 8.85044 4.54998 8.71667C4.68376 8.58289 4.8422 8.51622 5.02531 8.51667C5.20842 8.51711 5.36664 8.58378 5.49998 8.71667L7.86664 11.1Z" fill="#FFFDFC"/>
</svg>
