<svg width="28" height="28" viewBox="0 0 28 28" fill="none" xmlns="http://www.w3.org/2000/svg">
<path d="M12.8917 13.9999L8.37084 7.67075C8.09862 7.28186 8.06478 6.87859 8.26934 6.46092C8.47389 6.04325 8.81884 5.83403 9.30417 5.83325C9.49862 5.83325 9.68334 5.8772 9.85834 5.96509C10.0333 6.05297 10.1694 6.17431 10.2667 6.32909L15.75 13.9999L10.2667 21.6708C10.1694 21.8263 10.0333 21.948 9.85834 22.0359C9.68334 22.1238 9.49862 22.1674 9.30417 22.1666C8.8375 22.1666 8.49723 21.9578 8.28334 21.5401C8.06945 21.1224 8.09862 20.7188 8.37084 20.3291L12.8917 13.9999ZM19.8333 13.9999L15.3125 7.67075C15.0403 7.28186 15.0061 6.87859 15.2098 6.46092C15.4136 6.04325 15.7593 5.83403 16.247 5.83325C16.4414 5.83325 16.6262 5.8772 16.8012 5.96509C16.9762 6.05297 17.1123 6.17431 17.2095 6.32909L22.6917 13.9999L17.2083 21.6708C17.1111 21.8263 16.975 21.948 16.8 22.0359C16.625 22.1238 16.4403 22.1674 16.2458 22.1666C15.7792 22.1666 15.4389 21.9578 15.225 21.5401C15.0111 21.1224 15.0403 20.7188 15.3125 20.3291L19.8333 13.9999Z" fill="#155DFC"/>
</svg>
