<svg width="31" height="31" viewBox="0 0 31 31" fill="none" xmlns="http://www.w3.org/2000/svg">
<path d="M6.45833 27.125C5.74792 27.125 5.13997 26.8723 4.6345 26.3668C4.12903 25.8613 3.87586 25.2529 3.875 24.5417V11.625C3.875 10.9146 4.12817 10.3066 4.6345 9.80117C5.14083 9.29569 5.74878 9.04253 6.45833 9.04167H9.04167V6.45833C9.04167 5.74792 9.29483 5.13997 9.80117 4.6345C10.3075 4.12903 10.9154 3.87586 11.625 3.875H19.375C20.0854 3.875 20.6938 4.12817 21.2001 4.6345C21.7065 5.14083 21.9592 5.74878 21.9583 6.45833V14.2083H24.5417C25.2521 14.2083 25.8605 14.4615 26.3668 14.9678C26.8731 15.4742 27.1259 16.0821 27.125 16.7917V24.5417C27.125 25.2521 26.8723 25.8605 26.3668 26.3668C25.8613 26.8731 25.2529 27.1259 24.5417 27.125H16.7917V21.9583H14.2083V27.125H6.45833ZM6.45833 24.5417H9.04167V21.9583H6.45833V24.5417ZM6.45833 19.375H9.04167V16.7917H6.45833V19.375ZM6.45833 14.2083H9.04167V11.625H6.45833V14.2083ZM11.625 19.375H14.2083V16.7917H11.625V19.375ZM11.625 14.2083H14.2083V11.625H11.625V14.2083ZM11.625 9.04167H14.2083V6.45833H11.625V9.04167ZM16.7917 19.375H19.375V16.7917H16.7917V19.375ZM16.7917 14.2083H19.375V11.625H16.7917V14.2083ZM16.7917 9.04167H19.375V6.45833H16.7917V9.04167ZM21.9583 24.5417H24.5417V21.9583H21.9583V24.5417ZM21.9583 19.375H24.5417V16.7917H21.9583V19.375Z" fill="#FFFAFA"/>
</svg>
