<svg width="31" height="31" viewBox="0 0 31 31" fill="none" xmlns="http://www.w3.org/2000/svg">
<path fill-rule="evenodd" clip-rule="evenodd" d="M15.5002 2.58338C17.286 2.58251 18.9651 2.92165 20.5374 3.60095C22.1097 4.28037 23.4773 5.20092 24.6389 6.3617C25.8004 7.52241 26.7213 8.88915 27.4006 10.4623C28.0801 12.0355 28.419 13.7153 28.4172 15.5004V25.8334C28.4172 26.5438 28.1639 27.1522 27.6584 27.6586C27.153 28.1648 26.5444 28.4172 25.8333 28.4164H15.5002C13.2829 28.4164 11.2213 27.8892 9.31567 26.8344C7.41019 25.7796 5.90879 24.4128 4.81177 22.7338L10.4954 17.0502L13.8215 19.892C14.0798 20.1285 14.3763 20.2358 14.7102 20.2142C15.044 20.1926 15.3289 20.064 15.5647 19.8275L20.6672 14.7572V15.5004C20.6673 15.8662 20.7914 16.1733 21.0393 16.4213C21.2872 16.669 21.5935 16.7922 21.9583 16.7914C22.3234 16.7905 22.6303 16.6664 22.8792 16.4193C23.1279 16.1723 23.2519 15.8662 23.2502 15.5004V11.6254C23.2502 11.2594 23.1262 10.9526 22.8782 10.7054C22.6302 10.4583 22.3234 10.3342 21.9583 10.3334H18.0833C17.7175 10.3334 17.4113 10.4576 17.1643 10.7054C16.9172 10.9534 16.7931 11.2603 16.7922 11.6254C16.7915 11.9903 16.9155 12.2975 17.1643 12.5463C17.413 12.7948 17.7193 12.918 18.0833 12.9164H18.8264L14.5959 17.1469L11.2375 14.3373C10.9794 14.1222 10.6838 14.0194 10.3508 14.0297C10.0178 14.04 9.73198 14.1643 9.49438 14.4017L3.51978 20.3763C3.2184 19.666 2.98744 18.864 2.82642 17.9711C2.66541 17.0782 2.58414 16.2546 2.58325 15.5004C2.58325 13.7136 2.92325 12.0338 3.60181 10.4623C4.28031 8.89098 5.2001 7.52407 6.36157 6.3617C7.52321 5.1992 8.89075 4.27865 10.4631 3.60095C12.0354 2.92338 13.7145 2.58424 15.5002 2.58338Z" fill="#FFFBFB"/>
</svg>
