<svg width="31" height="31" viewBox="0 0 31 31" fill="none" xmlns="http://www.w3.org/2000/svg">
<path d="M9.68758 28.4166C8.43897 28.4166 7.37335 27.9753 6.49071 27.0926C5.60807 26.21 5.16675 25.1444 5.16675 23.8958V7.10409C5.16675 5.85547 5.60807 4.78985 6.49071 3.90721C7.37335 3.02457 8.43897 2.58325 9.68758 2.58325H25.8334V21.9583C25.2952 21.9583 24.838 22.1468 24.4617 22.524C24.0854 22.9012 23.8968 23.3584 23.8959 23.8958C23.8951 24.4331 24.0836 24.8908 24.4617 25.2688C24.8397 25.6468 25.2969 25.835 25.8334 25.8333V28.4166H9.68758ZM10.3334 19.3749H12.9167V5.16659H10.3334V19.3749ZM9.68758 25.8333H21.7324C21.6032 25.5319 21.5012 25.2253 21.4262 24.9136C21.3513 24.6019 21.3134 24.2626 21.3126 23.8958C21.3126 23.5513 21.3449 23.2176 21.4095 22.8947C21.474 22.5718 21.5817 22.2596 21.7324 21.9583H9.68758C9.12786 21.9583 8.66501 22.1468 8.29904 22.524C7.93307 22.9012 7.75008 23.3584 7.75008 23.8958C7.75008 24.4555 7.93307 24.9183 8.29904 25.2843C8.66501 25.6503 9.12786 25.8333 9.68758 25.8333Z" fill="#FFFBFB"/>
</svg>
