<svg width="29" height="28" viewBox="0 0 29 28" fill="none" xmlns="http://www.w3.org/2000/svg">
<path d="M12.9167 27.125C11.1299 27.125 9.4507 26.7857 7.87917 26.1072C6.30764 25.4286 4.94063 24.5085 3.77813 23.3469C2.61563 22.1852 1.69553 20.8182 1.01784 19.2458C0.340141 17.6735 0.000862746 15.9943 1.63502e-06 14.2083C-0.000859476 12.4224 0.338418 10.7432 1.01784 9.17084C1.69725 7.59845 2.61735 6.23144 3.77813 5.0698C4.9389 3.90816 6.30592 2.98806 7.87917 2.3095C9.45242 1.63095 11.1316 1.29167 12.9167 1.29167C13.6486 1.29167 14.359 1.34549 15.0479 1.45313C15.7368 1.56077 16.4149 1.73299 17.0823 1.9698C17.3837 2.07744 17.6261 2.26602 17.8095 2.53555C17.9929 2.80507 18.0842 3.10087 18.0833 3.42292V5.26355C18.0833 5.95244 18.3257 6.53928 18.8105 7.02409C19.2953 7.50889 19.8818 7.75087 20.5698 7.75H20.6667V8.49271C20.6667 8.98785 20.8497 9.41841 21.2156 9.78438C21.5816 10.1504 22.0122 10.3333 22.5073 10.3333H24.1542C24.4771 10.3333 24.7677 10.4302 25.026 10.624C25.2844 10.8177 25.4566 11.076 25.5427 11.399C25.6503 11.851 25.7257 12.3087 25.7688 12.772C25.8118 13.2353 25.8333 13.7141 25.8333 14.2083C25.8333 15.9951 25.4941 17.6743 24.8155 19.2458C24.1369 20.8174 23.2169 22.1844 22.0552 23.3469C20.8936 24.5094 19.5266 25.4299 17.9542 26.1085C16.3818 26.787 14.7026 27.1259 12.9167 27.125ZM12.9167 21.3125C14.1653 21.3125 15.317 21.0111 16.3719 20.4083C17.4267 19.8056 18.2771 18.9875 18.9229 17.9542C19.0521 17.6958 19.0413 17.4375 18.8906 17.1792C18.7399 16.9208 18.5139 16.7917 18.2125 16.7917H7.62084C7.31945 16.7917 7.0934 16.9208 6.94271 17.1792C6.79202 17.4375 6.78125 17.6958 6.91042 17.9542C7.55625 18.9875 8.4122 19.8056 9.47825 20.4083C10.5443 21.0111 11.6904 21.3125 12.9167 21.3125ZM8.39583 12.9167C8.93403 12.9167 9.39171 12.7285 9.76888 12.3522C10.146 11.9759 10.3342 11.5182 10.3333 10.9792C10.3325 10.4401 10.1443 9.98287 9.76888 9.60742C9.39343 9.23198 8.93575 9.04339 8.39583 9.04167C7.85592 9.03995 7.39867 9.22853 7.02409 9.60742C6.6495 9.98631 6.46092 10.4436 6.45833 10.9792C6.45575 11.5148 6.64434 11.9725 7.02409 12.3522C7.40384 12.732 7.86108 12.9201 8.39583 12.9167ZM17.4375 12.9167C17.9757 12.9167 18.4334 12.7285 18.8105 12.3522C19.1877 11.9759 19.3759 11.5182 19.375 10.9792C19.3741 10.4401 19.186 9.98287 18.8105 9.60742C18.4351 9.23198 17.9774 9.04339 17.4375 9.04167C16.8976 9.03995 16.4403 9.22853 16.0658 9.60742C15.6912 9.98631 15.5026 10.4436 15.5 10.9792C15.4974 11.5148 15.686 11.9725 16.0658 12.3522C16.4455 12.732 16.9028 12.9201 17.4375 12.9167ZM23.25 5.16667H21.9583C21.5924 5.16667 21.2858 5.04267 21.0387 4.79467C20.7915 4.54667 20.6675 4.24012 20.6667 3.875C20.6658 3.50989 20.7898 3.20334 21.0387 2.95534C21.2875 2.70734 21.5941 2.58334 21.9583 2.58334H23.25V1.29167C23.25 0.925699 23.374 0.619143 23.622 0.372004C23.87 0.124866 24.1766 0.000865565 24.5417 4.45402e-06C24.9068 -0.000856657 25.2138 0.123143 25.4626 0.372004C25.7115 0.620866 25.8351 0.927421 25.8333 1.29167V2.58334H27.125C27.491 2.58334 27.798 2.70734 28.046 2.95534C28.294 3.20334 28.4175 3.50989 28.4167 3.875C28.4158 4.24012 28.2918 4.5471 28.0447 4.79596C27.7975 5.04482 27.491 5.16839 27.125 5.16667H25.8333V6.45834C25.8333 6.82431 25.7093 7.1313 25.4613 7.3793C25.2133 7.6273 24.9068 7.75087 24.5417 7.75C24.1766 7.74914 23.87 7.62514 23.622 7.378C23.374 7.13087 23.25 6.82431 23.25 6.45834V5.16667Z" fill="#FFFAFA"/>
</svg>
